<?xml version="1.0" standalone="no"?><!DOCTYPE svg PUBLIC "-//W3C//DTD SVG 1.1//EN" "http://www.w3.org/Graphics/SVG/1.1/DTD/svg11.dtd"><svg t="1523435542105" class="icon" style="" viewBox="0 0 1024 1024" version="1.1" xmlns="http://www.w3.org/2000/svg" p-id="2311" xmlns:xlink="http://www.w3.org/1999/xlink" width="64" height="64"><defs><style type="text/css"></style></defs><path d="M509.44 871.936 128.512 871.936c-16.384 0-29.184-13.312-29.184-29.184 0-16.384 13.312-29.184 29.184-29.184l380.928 0c16.384 0 29.184 13.312 29.184 29.184C538.624 858.624 525.824 871.936 509.44 871.936z" p-id="2312"></path><path d="M895.488 770.56c-5.12 0-10.24-1.024-14.848-4.096L265.728 411.648c-13.824-8.192-18.944-26.112-10.752-39.936 8.192-13.824 26.112-18.944 39.936-10.752l614.912 354.816c13.824 8.192 18.944 26.112 10.752 39.936C915.456 765.44 905.216 770.56 895.488 770.56z" p-id="2313"></path><path d="M495.104 438.272c-5.12 0-10.24-1.024-14.848-4.096L309.76 335.872c-13.824-8.192-18.944-26.112-10.752-39.936 8.192-13.824 26.112-18.944 39.936-10.752l170.496 98.816c13.824 8.192 18.944 26.112 10.752 39.936C515.072 433.152 505.344 438.272 495.104 438.272z" p-id="2314"></path><path d="M577.024 384c-5.12 0-10.24-1.024-14.848-4.096L315.904 237.568c-13.824-8.192-18.944-26.112-10.752-39.936 8.192-13.824 26.112-18.944 39.936-10.752l246.784 142.336c13.824 8.192 18.944 26.112 10.752 39.936C596.992 378.88 587.264 384 577.024 384z" p-id="2315"></path><path d="M407.04 590.336c-5.12 0-10.24-1.024-14.848-4.096L221.696 487.936c-13.824-8.192-18.944-26.112-10.752-39.936 8.192-13.824 26.112-18.944 39.936-10.752l170.496 98.816c13.824 8.192 18.944 26.112 10.752 39.936C427.008 585.216 417.28 590.336 407.04 590.336z" p-id="2316"></path><path d="M401.408 688.64c-5.12 0-10.24-1.024-14.848-4.096l-246.784-142.336c-13.824-8.192-18.944-26.112-10.752-39.936 8.192-13.824 26.112-18.944 39.936-10.752l246.784 142.336c13.824 8.192 18.944 26.112 10.752 39.936C421.376 683.52 411.648 688.64 401.408 688.64z" p-id="2317"></path></svg>