<?xml version="1.0" standalone="no"?><!DOCTYPE svg PUBLIC "-//W3C//DTD SVG 1.1//EN" "http://www.w3.org/Graphics/SVG/1.1/DTD/svg11.dtd"><svg t="1522203710583" class="icon" style="" viewBox="0 0 1024 1024" version="1.1" xmlns="http://www.w3.org/2000/svg" p-id="2843" xmlns:xlink="http://www.w3.org/1999/xlink" width="64" height="64"><defs><style type="text/css"></style></defs><path d="M511.998465 66.541509c-246.01816 0-445.457468 199.440331-445.457468 445.458491 0 246.017136 199.439308 445.457468 445.457468 445.457468 246.019183 0 445.459514-199.440331 445.459514-445.457468C957.457979 265.98184 758.017648 66.541509 511.998465 66.541509zM511.998465 929.808758c-230.747361 0-417.809781-187.05628-417.809781-417.808758 0-230.753501 187.06242-417.809781 417.809781-417.809781 230.748385 0 417.808758 187.05628 417.808758 417.809781C929.807223 742.752478 742.74685 929.808758 511.998465 929.808758zM775.988951 476.801337 547.194058 476.801337 547.194058 248.016677c0-19.437701-15.754822-35.193547-35.18229-35.193547-19.447934 0-35.20378 15.755846-35.20378 35.193547l0 228.783637L248.029468 476.800313c-19.447934 0-35.20378 15.755846-35.20378 35.20378 0 19.437701 15.755846 35.193547 35.20378 35.193547l228.77852 0 0 228.773404c0 19.446911 15.755846 35.202757 35.20378 35.202757 19.426445 0 35.18229-15.755846 35.18229-35.202757L547.194058 547.198663l228.794893 0c19.426445 0 35.183314-15.755846 35.183314-35.193547C811.172265 492.557182 795.41642 476.801337 775.988951 476.801337z" p-id="2844" fill="#999999"></path></svg>