<?xml version="1.0" standalone="no"?><!DOCTYPE svg PUBLIC "-//W3C//DTD SVG 1.1//EN" "http://www.w3.org/Graphics/SVG/1.1/DTD/svg11.dtd"><svg t="1523435561766" class="icon" style="" viewBox="0 0 1024 1024" version="1.1" xmlns="http://www.w3.org/2000/svg" p-id="2937" xmlns:xlink="http://www.w3.org/1999/xlink" width="64" height="64"><defs><style type="text/css"></style></defs><path d="M511.936 64c-246.72 0-446.72 172.16-446.72 384.576 0 121.408 65.472 229.504 167.552 299.904v194.624l195.712-116.864c27.072 4.352 54.976 6.976 83.52 6.976 246.784 0 446.784-172.224 446.784-384.64S758.72 64 511.936 64z m0 714.24a470.272 470.272 0 0 1-94.4-9.984l-131.392 77.632 1.728-127.36c-100.736-59.648-166.848-158.208-166.848-269.888 0-182.08 175.04-329.6 390.912-329.6 216 0 390.976 147.584 390.976 329.6 0 182.08-174.976 329.6-390.976 329.6z m182.4-434.176H329.6c-20.608 0-37.248 14.336-37.248 32s16.64 32 37.248 32h364.672c20.48 0 37.248-14.336 37.248-32 0.064-17.664-16.704-32-37.184-32zM557.632 499.008h-223.36a38.592 38.592 0 0 0-37.248 36.608c0 17.6 16.64 27.392 37.248 27.392h223.36c20.608 0 37.248-14.4 37.248-32 0-17.664-16.64-32-37.248-32z" p-id="2938"></path></svg>