<?xml version="1.0" standalone="no"?><!DOCTYPE svg PUBLIC "-//W3C//DTD SVG 1.1//EN" "http://www.w3.org/Graphics/SVG/1.1/DTD/svg11.dtd"><svg t="1523589959687" class="icon" style="" viewBox="0 0 1024 1024" version="1.1" xmlns="http://www.w3.org/2000/svg" p-id="3305" xmlns:xlink="http://www.w3.org/1999/xlink" width="64" height="64"><defs><style type="text/css"></style></defs><path d="M512 385.037c-92.572 0-167.625 75.038-167.625 167.625 0 92.572 75.053 167.625 167.625 167.625 92.587 0 167.625-75.053 167.625-167.625C679.625 460.075 604.587 385.037 512 385.037zM512 690.487c-75.999 0-137.825-61.841-137.825-137.825 0-75.999 61.826-137.825 137.825-137.825 75.999 0 137.825 61.826 137.825 137.825C649.825 628.646 587.999 690.487 512 690.487z" p-id="3306" fill="#ffffff"></path><path d="M704.943 301.225 677.763 170.85 346.238 170.85l-27.167 130.375-48.628 0 0-30.062 0-29.8-29.8 0-89.4 0-29.8 0 0 59.862L65 301.225 65 853.15l894 0L959 301.225 704.943 301.225zM151.243 271.163l89.4 0 0 30.062-89.4 0L151.243 271.163zM929.2 823.351 94.8 823.351 94.8 331.025l248.498 0 27.167-130.375 283.07 0 27.182 130.375L929.2 331.025 929.2 823.351z" p-id="3307" fill="#ffffff"></path></svg>