<?xml version="1.0" standalone="no"?><!DOCTYPE svg PUBLIC "-//W3C//DTD SVG 1.1//EN" "http://www.w3.org/Graphics/SVG/1.1/DTD/svg11.dtd"><svg t="1523592415569" class="icon" style="" viewBox="0 0 1024 1024" version="1.1" xmlns="http://www.w3.org/2000/svg" p-id="4790" xmlns:xlink="http://www.w3.org/1999/xlink" width="64" height="64"><defs><style type="text/css"></style></defs><path d="M555.008 512l299.008-299.008c12.288-12.288 12.288-31.744 0-43.008-12.288-12.288-31.744-12.288-43.008 0L512 468.992 212.992 169.984c-12.288-12.288-31.744-12.288-43.008 0-12.288 12.288-12.288 31.744 0 43.008L468.992 512 169.984 811.008c-12.288 12.288-12.288 31.744 0 43.008 6.144 6.144 14.336 9.216 21.504 9.216s15.36-3.072 21.504-9.216L512 555.008l299.008 299.008c6.144 6.144 14.336 9.216 21.504 9.216s15.36-3.072 21.504-9.216c12.288-12.288 12.288-31.744 0-43.008L555.008 512z" p-id="4791" fill="#ffffff"></path></svg>