<?xml version="1.0" standalone="no"?><!DOCTYPE svg PUBLIC "-//W3C//DTD SVG 1.1//EN" "http://www.w3.org/Graphics/SVG/1.1/DTD/svg11.dtd"><svg t="1522203654784" class="icon" style="" viewBox="0 0 1024 1024" version="1.1" xmlns="http://www.w3.org/2000/svg" p-id="1982" xmlns:xlink="http://www.w3.org/1999/xlink" width="64" height="64"><defs><style type="text/css"></style></defs><path d="M342.36416 425.00608c28.83072 0 52.1984-23.3728 52.1984-52.19328 0-28.83072-23.36768-52.1984-52.1984-52.1984-28.8256 0-52.19328 23.36768-52.19328 52.1984C290.16576 401.63328 313.53856 425.00608 342.36416 425.00608L342.36416 425.00608zM690.33984 425.00608c28.83072 0 52.1984-23.3728 52.1984-52.19328 0-28.83072-23.36768-52.1984-52.1984-52.1984s-52.19328 23.36768-52.19328 52.1984C638.14656 401.63328 661.50912 425.00608 690.33984 425.00608L690.33984 425.00608zM237.97248 593.80224c0 137.40032 124.63616 248.7808 278.37952 248.7808 153.74848 0 278.38464-111.38048 278.38464-248.7808L237.97248 593.80224 237.97248 593.80224z" p-id="1983" fill="#999999"></path><path d="M516.352 999.168c269.056 0 487.168-218.12224 487.168-487.168 0-269.056-218.11712-487.168-487.168-487.168C247.296 24.832 29.184 242.944 29.184 512 29.184 781.05088 247.296 999.168 516.352 999.168L516.352 999.168 516.352 999.168zM516.352 964.37248c-249.83552 0-452.36736-202.53184-452.36736-452.37248 0-249.8304 202.53184-452.37248 452.36736-452.37248 249.84064 0 452.37248 202.53696 452.37248 452.37248C968.72448 761.84064 766.18752 964.37248 516.352 964.37248L516.352 964.37248 516.352 964.37248z" p-id="1984" fill="#999999"></path></svg>