<?xml version="1.0" standalone="no"?><!DOCTYPE svg PUBLIC "-//W3C//DTD SVG 1.1//EN" "http://www.w3.org/Graphics/SVG/1.1/DTD/svg11.dtd"><svg t="1523867663317" class="icon" style="" viewBox="0 0 1024 1024" version="1.1" xmlns="http://www.w3.org/2000/svg" p-id="2570" xmlns:xlink="http://www.w3.org/1999/xlink" width="64" height="64"><defs><style type="text/css"></style></defs><path d="M799.904 506.7712c-0.0832 6.1888-0.3136 11.6992-0.736 14.464a291.328 291.328 0 0 0 0.736-14.464z m-574.9504 16.032a291.0976 291.0976 0 0 1-0.8256-14.8992c0.0704 6.2336 0.3008 11.8336 0.8256 14.8992z m-0.5952-38.112c0.1088-2.2272 0.2496-4.448 0.4096-6.656h-0.2368c0 0.416-0.0832 2.9504-0.1728 6.656zM512 851.2c-194.4064 0-352-157.5936-352-352s157.5936-352 352-352 352 157.5936 352 352-157.5936 352-352 352z m287.904-344.4288c0.064-2.5152 0.096-5.0368 0.096-7.5712 0-159.0592-128.9408-288-288-288-151.936 0-276.3968 117.6576-287.232 266.8288h64.0192c9.76-118.2592 108.832-211.2 229.6128-211.2 120.7808 0 219.8528 92.9408 229.6128 211.2h50.8416c0.7296 0 1.216 15.84 1.0496 28.7424z m-0.736 14.464c-0.1088 0.7424-0.2368 1.28-0.384 1.6H723.2a19.2 19.2 0 0 1-19.2-19.2c-0.0384-2.1312 0-4.2624 0-6.4 0-102.5088-83.0976-185.6-185.6-185.6s-185.6 83.0912-185.6 185.6c0 2.1376 0.0384 4.2688 0.1088 6.4a19.36 19.36 0 0 1-19.3088 19.2H224.96l-0.0064-0.032C236.96 670.8224 360.8896 787.2 512 787.2c151.6416 0 275.9104-117.1968 287.168-265.9584zM224.128 507.904c-0.0896-8.064 0.0832-17.184 0.2304-23.2128a292.7616 292.7616 0 0 0-0.2304 23.2128zM515.2 618.8288c-65.3888 0-118.4-53.0048-118.4-118.4 0-65.3888 53.0112-118.4 118.4-118.4S633.6 435.04 633.6 500.4288c0 65.3952-53.0112 118.4-118.4 118.4z m0-44.8c40.6464 0 73.6-32.9472 73.6-73.6 0-40.6464-32.9536-73.6-73.6-73.6S441.6 459.7824 441.6 500.4288c0 40.6528 32.9536 73.6 73.6 73.6z m0-49.2288a22.4 22.4 0 1 1 0-44.8 22.4 22.4 0 0 1 0 44.8z" fill="#2c2c2c" p-id="2571"></path></svg>