<?xml version="1.0" standalone="no"?><!DOCTYPE svg PUBLIC "-//W3C//DTD SVG 1.1//EN" "http://www.w3.org/Graphics/SVG/1.1/DTD/svg11.dtd"><svg t="1523590226570" class="icon" style="" viewBox="0 0 1024 1024" version="1.1" xmlns="http://www.w3.org/2000/svg" p-id="4007" xmlns:xlink="http://www.w3.org/1999/xlink" width="64" height="64"><defs><style type="text/css"></style></defs><path d="M625.1 469.1v-30c60.2 0 109.2-49 109.2-109.2s-49-109.2-109.2-109.2c-46.3 0-87.8 29.4-103.1 73l-28.3-9.9c19.5-55.7 72.3-93.1 131.4-93.1 76.8 0 139.2 62.5 139.2 139.2s-62.4 139.2-139.2 139.2z" p-id="4008" fill="#ffffff"></path><path d="M879.1 809.1h-30c0-91.9-24-178-67.4-242.6-42.3-62.8-97.9-97.3-156.5-97.3-7.4 0-14.9 0.6-22.2 1.7l-4.5-29.7c8.8-1.3 17.8-2 26.7-2 35.1 0 69.1 10.2 101 30.2 30.2 19 57.3 46 80.4 80.4 46.7 69.4 72.5 161.5 72.5 259.3zM352 469.1c-76.8 0-139.2-62.5-139.2-139.2S275.2 190.7 352 190.7c60 0 113.1 38.2 132.1 95.1l-28.5 9.5c-14.9-44.6-56.5-74.6-103.6-74.6-60.2 0-109.2 49-109.2 109.2s49 109.2 109.2 109.2v30z" p-id="4009" fill="#ffffff"></path><path d="M128 809.1H98c0-97.8 25.8-189.9 72.6-259.4 23.1-34.3 50.2-61.4 80.4-80.4 31.9-20 65.9-30.2 101-30.2 6.4 0 12.8 0.3 19.2 1l-3.2 29.8c-5.3-0.6-10.6-0.9-16-0.9-58.7 0-114.3 34.6-156.5 97.3C152 631 128 717.2 128 809.1z" p-id="4010" fill="#ffffff"></path><path d="M491 552.2c-76.8 0-139.2-62.5-139.2-139.2S414.2 273.8 491 273.8 630.2 336.2 630.2 413 567.8 552.2 491 552.2z m0-248.4c-60.2 0-109.2 49-109.2 109.2s49 109.2 109.2 109.2 109.2-49 109.2-109.2-49-109.2-109.2-109.2z" p-id="4011" fill="#ffffff"></path><path d="M745 892.2h-30c0-91.9-24-178-67.4-242.6-42.3-62.8-97.9-97.3-156.5-97.3s-114.3 34.6-156.5 97.3C291 714.1 267 800.3 267 892.2h-30c0-97.8 25.8-189.9 72.6-259.4 23.1-34.3 50.2-61.4 80.4-80.4 31.9-20 65.9-30.2 101-30.2 35.1 0 69.1 10.2 101 30.2 30.2 19 57.3 46 80.4 80.4 46.8 69.5 72.6 161.6 72.6 259.4z" p-id="4012" fill="#ffffff"></path></svg>