<?xml version="1.0" standalone="no"?><!DOCTYPE svg PUBLIC "-//W3C//DTD SVG 1.1//EN" "http://www.w3.org/Graphics/SVG/1.1/DTD/svg11.dtd"><svg t="1523437246136" class="icon" style="" viewBox="0 0 1024 1024" version="1.1" xmlns="http://www.w3.org/2000/svg" p-id="4882" xmlns:xlink="http://www.w3.org/1999/xlink" width="64" height="64"><defs><style type="text/css"></style></defs><path d="M798.743 61.975c3.296-3.296 9.888-6.592 13.184-6.592 13.184 0 19.776 9.888 19.776 19.776v75.805h75.805c9.888 0 19.776 9.888 19.776 19.776s-9.888 19.776-19.776 19.776h-75.805v72.51c0 13.184-6.592 19.776-19.776 19.776-9.888 0-16.479-6.592-16.479-19.776v-72.51h-75.805c-9.888 0-19.776-9.888-19.776-19.776 0-6.592 3.296-9.888 6.592-13.184 3.296-3.296 6.592-6.592 13.184-6.592h75.805v-75.805c0-3.296 0-9.888 3.296-13.184zM933.875 470.667c0-69.214-16.479-135.132-46.143-194.458-13.184-26.367-46.143-6.592-32.959 16.479 26.367 52.734 42.847 115.357 42.847 177.979 0 92.286-32.959 177.979-88.989 243.896-13.184-65.918-39.551-118.653-95.581-145.020 9.888-19.776 16.479-39.551 16.479-65.918v-194.458c0-16.479-3.296-32.959-9.888-46.143-9.888-9.888-16.479-19.776-19.776-32.959-23.071-26.367-59.326-39.551-92.286-42.847-16.479 0-26.367 13.184-26.367 23.071 3.296 9.888 13.184 16.479 19.776 16.479 46.143 6.592 88.989 32.959 88.989 79.102v197.754c0 23.071-6.592 46.143-26.367 56.031-16.479 13.184-13.184 29.663 3.296 32.959 9.888 3.296 19.776 6.592 29.663 9.888 52.734 23.071 72.51 79.102 82.398 148.315-32.959 29.663-72.51 56.031-112.060 72.51-6.592-105.469-23.071-204.346-108.765-247.193 9.888-19.776 16.479-39.551 16.479-62.622v-217.529c0-158.203-276.856-158.203-276.856 0v217.529c0 23.071 6.592 42.847 16.479 62.622-56.031 26.367-82.398 79.102-98.877 141.724-52.734-69.214-85.693-154.907-85.693-247.193 0-210.938 171.387-382.325 382.325-382.325 69.214 0 131.836 16.479 184.57 46.143 9.888 6.592 19.776 3.296 26.367-3.296 6.592-9.888 6.592-23.071-9.888-32.959-59.326-29.663-128.54-49.438-201.050-49.438-234.008 0-421.875 187.867-421.875 421.875 0 234.008 187.867 421.875 421.875 421.875 234.008 0 421.875-187.867 421.875-421.875zM627.357 836.512c-36.255 13.184-75.805 19.776-115.357 19.776-102.172 0-194.458-39.551-263.672-105.469 9.888-69.214 32.959-125.244 88.989-145.020 39.551 36.255 158.203 36.255 194.458 0 79.102 29.663 92.286 128.54 95.581 230.713zM334.021 513.514v-217.529c0-105.469 204.346-105.469 204.346 0v217.529c0 105.469-204.346 105.469-204.346 0z" p-id="4883"></path></svg>