<?xml version="1.0" standalone="no"?><!DOCTYPE svg PUBLIC "-//W3C//DTD SVG 1.1//EN" "http://www.w3.org/Graphics/SVG/1.1/DTD/svg11.dtd"><svg t="1524214048051" class="icon" style="" viewBox="0 0 1024 1024" version="1.1" xmlns="http://www.w3.org/2000/svg" p-id="1916" xmlns:xlink="http://www.w3.org/1999/xlink" width="64" height="64"><defs><style type="text/css"></style></defs><path d="M913.92 878.08l-212.48-207.36c56.32-61.44 89.6-140.8 89.6-227.84 0-186.88-153.6-337.92-345.6-337.92C256 102.4 102.4 253.44 102.4 440.32s153.6 337.92 345.6 337.92c81.92 0 158.72-28.16 217.6-76.8l212.48 209.92c10.24 10.24 28.16 10.24 38.4 0 7.68-7.68 7.68-23.04-2.56-33.28z m-465.92-148.48c-161.28 0-291.84-128-291.84-286.72C156.16 284.16 286.72 153.6 448 153.6c161.28 0 291.84 128 291.84 286.72 0 158.72-130.56 289.28-291.84 289.28z" p-id="1917" fill="#707070"></path></svg>